<?xml version="1.0" encoding="utf-8"?>
<!-- Generator: Adobe Illustrator 24.2.3, SVG Export Plug-In . SVG Version: 6.00 Build 0)  -->
<svg version="1.1" id="Layer_1" xmlns="http://www.w3.org/2000/svg" xmlns:xlink="http://www.w3.org/1999/xlink" x="0px" y="0px"
	 viewBox="0 0 433 36" style="enable-background:new 0 0 433 36;" xml:space="preserve">
<style type="text/css">
	.st0{display:none;}
	.st1{display:inline;fill:#1A1B1E;}
	.st2{display:none;fill:#FFFFFF;}
	.st3{font-family:'Oceanwide-Semibold';}
	.st4{font-size:47px;}
	.st5{font-size:17.1191px;}
	.st6{fill:#FFFFFF;}
</style>
<g class="st0">
	<rect x="-153" y="-64" class="st1" width="716" height="150"/>
</g>
<text transform="matrix(1 0 0 1 -2.9729 35.3506)" class="st2 st3 st4">FRIENDS</text>
<text transform="matrix(1 0 0 1 220.7004 35)" class="st2 st3 st4">LEGENDS</text>
<text transform="matrix(1 0 0 1 192.9995 23.8804)" class="st2 st3 st5">OF</text>
<g>
	<path class="st6" d="M-0.1,1h21.9v6.2H6.6v8.1h14.2v5.9H6.6v14.2h-6.7V1z"/>
	<path class="st6" d="M26,1h12.8c6.9,0,11.8,4.2,11.8,10.2c0,5-3.5,8.9-8.7,10l10.5,14.1h-8.3l-9.7-13.7h-1.8v13.7H26V1z M37.9,16.2
		c3.2,0,5.6-2,5.6-4.8c0-2.7-2.3-4.7-5.6-4.7h-5.2v9.5H37.9z"/>
	<path class="st6" d="M55.2,1h6.7v34.3h-6.7V1z"/>
	<path class="st6" d="M67.1,1h22v6.2H73.8V15h14.5l0,5.9H73.8v8.3h16v6.2H67.1V1z"/>
	<path class="st6" d="M124.9,35.4h-6.8l-17.2-23.7h-0.2v23.7H94V1h6.7L118,24.6h0.2V1h6.7V35.4z"/>
	<path class="st6" d="M130.1,1h12.6c10.7,0,18.2,7,18.2,17.1c0,10-7.5,17.2-18.2,17.2h-12.6V1z M142.1,29.4
		c6.7,0,11.6-4.8,11.6-11.3c0-6.5-4.8-11.1-11.6-11.1h-5.4v22.5H142.1z"/>
	<path class="st6" d="M166.5,26.7c2.4,1.9,5.5,3.1,8.2,3.1c3.1,0,5.2-1.5,5.2-3.8c0-1.9-1.5-3.2-5.3-4.7l-1.4-0.6
		c-6.2-2.5-8.8-5.6-8.8-10.2c0-6.1,4.5-10.1,11.3-10.1c3.7,0,7.9,1.2,10.5,2.9l-3.3,5.5c-2.5-1.5-4.8-2.2-6.9-2.2
		c-2.7,0-4.7,1.4-4.7,3.5c0,1.7,1.5,3.1,5.5,4.8l1.6,0.7c5.9,2.4,8.4,5.5,8.4,10c0,6.3-4.9,10.5-12,10.5c-4.3,0-8.9-1.5-11.9-3.9
		L166.5,26.7z"/>
</g>
<g>
	<path class="st6" d="M223.8,0.7h6.7v28.2h13.8V35h-20.5V0.7z"/>
	<path class="st6" d="M248.4,0.7h22v6.2h-15.3v7.8h14.5l0,5.9h-14.5v8.3h16V35h-22.7V0.7z"/>
	<path class="st6" d="M292.9,16.1H309c0.6,11.6-6.3,19.6-16.8,19.6c-10.3,0-18.3-7.8-18.3-17.9S281.9,0,292.1,0
		c6.7,0,12.4,3.3,14.9,8.6l-6,3.1c-2-3.5-5-5.3-8.8-5.3c-6.3,0-11,4.9-11,11.4c0,6.5,4.8,11.4,11.1,11.4c5,0,8.9-3.1,9.3-7.3h-8.6
		V16.1z"/>
	<path class="st6" d="M313.2,0.7h22v6.2h-15.3v7.8h14.5l0,5.9h-14.5v8.3h16V35h-22.7V0.7z"/>
	<path class="st6" d="M371,35h-6.8L347,11.3h-0.2V35h-6.7V0.7h6.7l17.2,23.5h0.2V0.7h6.7V35z"/>
	<path class="st6" d="M376.2,0.7h12.6c10.7,0,18.2,7,18.2,17.1c0,10-7.5,17.2-18.2,17.2h-12.6V0.7z M388.2,29.1
		c6.7,0,11.6-4.8,11.6-11.3c0-6.5-4.8-11.1-11.6-11.1h-5.4v22.5H388.2z"/>
	<path class="st6" d="M412.6,26.3c2.4,1.9,5.5,3.1,8.2,3.1c3.1,0,5.2-1.5,5.2-3.8c0-1.9-1.5-3.2-5.3-4.7l-1.4-0.6
		c-6.2-2.5-8.8-5.6-8.8-10.2C410.5,4,415,0,421.9,0c3.7,0,7.9,1.2,10.5,2.9L429,8.4c-2.5-1.5-4.8-2.2-6.9-2.2
		c-2.7,0-4.7,1.4-4.7,3.5c0,1.7,1.5,3.1,5.5,4.8l1.6,0.7c5.9,2.4,8.4,5.5,8.4,10c0,6.3-4.9,10.5-12,10.5c-4.3,0-8.9-1.5-11.9-3.9
		L412.6,26.3z"/>
</g>
<g>
	<path class="st6" d="M200.2,11.1c3.7,0,6.7,2.9,6.7,6.5c0,3.6-2.9,6.5-6.7,6.5c-3.7,0-6.6-2.9-6.6-6.5
		C193.6,14,196.5,11.1,200.2,11.1z M200.2,21.8c2.3,0,4-1.8,4-4.2c0-2.3-1.8-4.2-4-4.2c-2.3,0-4,1.8-4,4.2
		C196.2,20,198,21.8,200.2,21.8z"/>
	<path class="st6" d="M208.4,11.4h8v2.2h-5.5v2.9h5.2v2.1h-5.2v5.2h-2.4V11.4z"/>
</g>
</svg>
